<?xml version="1.0" encoding="UTF-8" standalone="no"?>
<svg
   xmlns:dc="http://purl.org/dc/elements/1.1/"
   xmlns:cc="http://creativecommons.org/ns#"
   xmlns:rdf="http://www.w3.org/1999/02/22-rdf-syntax-ns#"
   xmlns:svg="http://www.w3.org/2000/svg"
   xmlns="http://www.w3.org/2000/svg"
   xmlns:sodipodi="http://sodipodi.sourceforge.net/DTD/sodipodi-0.dtd"
   xmlns:inkscape="http://www.inkscape.org/namespaces/inkscape"
   height="64"
   viewBox="0 0 16.933333 16.933334"
   width="64"
   version="1.1"
   id="svg57"
   sodipodi:docname="logo.svg"
   inkscape:version="0.92.3 (2405546, 2018-03-11)">
  <metadata
     id="metadata63">
    <rdf:RDF>
      <cc:Work
         rdf:about="">
        <dc:format>image/svg+xml</dc:format>
        <dc:type
           rdf:resource="http://purl.org/dc/dcmitype/StillImage" />
        <dc:title></dc:title>
      </cc:Work>
    </rdf:RDF>
  </metadata>
  <defs
     id="defs61" />
  <sodipodi:namedview
     pagecolor="#ffffff"
     bordercolor="#666666"
     borderopacity="1"
     objecttolerance="10"
     gridtolerance="10"
     guidetolerance="10"
     inkscape:pageopacity="0"
     inkscape:pageshadow="2"
     inkscape:window-width="1920"
     inkscape:window-height="1025"
     id="namedview59"
     showgrid="false"
     inkscape:zoom="3.6875"
     inkscape:cx="-1.0847458"
     inkscape:cy="32"
     inkscape:window-x="0"
     inkscape:window-y="27"
     inkscape:window-maximized="1"
     inkscape:current-layer="svg57" />
  <linearGradient
     id="a"
     gradientTransform="rotate(43.47495,8.3343766,288.28166)"
     gradientUnits="userSpaceOnUse"
     x1="11.125094"
     x2="6.481286"
     y1="286.60989"
     y2="286.00851">
    <stop
       offset="0"
       stop-color="#bf7b10"
       id="stop2" />
    <stop
       offset="1"
       stop-color="#e8b86d"
       id="stop4" />
  </linearGradient>
  <linearGradient
     id="b"
     gradientTransform="rotate(43.47495,8.3343766,288.28166)"
     gradientUnits="userSpaceOnUse"
     x1="11.509375"
     x2="5.2471313"
     y1="294.75101"
     y2="291.61029">
    <stop
       offset="0"
       stop-color="#e2af61"
       id="stop7" />
    <stop
       offset="1"
       stop-color="#f1d8b2"
       id="stop9" />
  </linearGradient>
  <linearGradient
     id="c"
     gradientTransform="matrix(0.9837838,0,0,1,-0.08938991,0.09453092)"
     gradientUnits="userSpaceOnUse"
     x1="5.0081882"
     x2=".89769715"
     y1="281.89978"
     y2="280.76587">
    <stop
       offset="0"
       stop-color="#fce94f"
       id="stop12" />
    <stop
       offset="1"
       stop-color="#fce94f"
       stop-opacity=".25742576"
       id="stop14" />
  </linearGradient>
  <linearGradient
     id="d"
     gradientTransform="matrix(0.98378379,0,0,1,-0.08938989,3.004935)"
     gradientUnits="userSpaceOnUse"
     x1="5.0081882"
     x2=".89769715"
     y1="281.89978"
     y2="280.76587">
    <stop
       offset="0"
       stop-color="#729ece"
       id="stop17" />
    <stop
       offset="1"
       stop-color="#729ece"
       stop-opacity=".51485151"
       id="stop19" />
  </linearGradient>
  <linearGradient
     id="e"
     gradientTransform="matrix(0.98378379,0,0,1,-0.08938989,5.9153515)"
     gradientUnits="userSpaceOnUse"
     x1="5.0081882"
     x2=".89769715"
     y1="281.89978"
     y2="280.76587">
    <stop
       offset="0"
       stop-color="#ec2d27"
       id="stop22" />
    <stop
       offset="1"
       stop-color="#ef2929"
       stop-opacity=".44554454"
       id="stop24" />
  </linearGradient>
  <g
     transform="matrix(1.9110218,0,0,1.7791994,-0.33025826,-0.40070513)"
     id="g16">
    <path
       style="fill:#6d97c4"
       inkscape:connector-curvature="0"
       d="m 0.53,1.455 h 5.29 v 4.022 c -1.973,0.87 -3.596,0.76 -5.293,0 z"
       id="path2" />
    <path
       inkscape:connector-curvature="0"
       d="m 0.53,1.244 v 4.18 L 1.06,5.689 1.058,1.243 Z"
       style="color:#000000;line-height:normal;font-family:sans-serif;font-variant-ligatures:normal;font-variant-position:normal;font-variant-caps:normal;font-variant-numeric:normal;font-variant-alternates:normal;font-feature-settings:normal;text-indent:0;text-align:start;text-decoration:none;text-decoration-line:none;text-decoration-style:solid;text-decoration-color:#000000;text-transform:none;text-orientation:mixed;white-space:normal;shape-padding:0;overflow:visible;isolation:auto;mix-blend-mode:normal;solid-color:#000000;fill:#bacee3"
       overflow="visible"
       id="path4" />
    <path
       inkscape:connector-curvature="0"
       d="m 5.822,1.323 v 4.1 L 4.764,5.821 V 1.324 Z"
       style="color:#000000;line-height:normal;font-family:sans-serif;font-variant-ligatures:normal;font-variant-position:normal;font-variant-caps:normal;font-variant-numeric:normal;font-variant-alternates:normal;font-feature-settings:normal;text-indent:0;text-align:start;text-decoration:none;text-decoration-line:none;text-decoration-style:solid;text-decoration-color:#000000;text-transform:none;text-orientation:mixed;white-space:normal;shape-padding:0;overflow:visible;isolation:auto;mix-blend-mode:normal;solid-color:#000000;fill:#55769a"
       overflow="visible"
       id="path6" />
    <path
       style="fill:#415a75"
       inkscape:connector-curvature="0"
       d="M 5.822,1.19 H 6.087 V 5.133 H 5.822 Z m -5.557,0 H 0.53 V 5.133 H 0.264 Z"
       id="path8" />
    <path
       inkscape:connector-curvature="0"
       style="color:#000000;line-height:normal;font-family:sans-serif;font-variant-ligatures:normal;font-variant-position:normal;font-variant-caps:normal;font-variant-numeric:normal;font-variant-alternates:normal;font-feature-settings:normal;text-indent:0;text-align:start;text-decoration:none;text-decoration-line:none;text-decoration-style:solid;text-decoration-color:#000000;text-transform:none;text-orientation:mixed;white-space:normal;shape-padding:0;overflow:visible;isolation:auto;mix-blend-mode:normal;solid-color:#000000;fill:#415a75"
       d="M 0.53,2.46 V 2.91 C 0.74,3.056 0.94,3.136 1.14,3.198 1.66,3.356 2.396,3.44 3.176,3.44 3.956,3.44 4.646,3.353 5.166,3.195 5.406,3.113 5.638,3.045 5.822,2.91 V 2.46 c 0,0.065 -0.046,0.164 -0.17,0.25 C 5.528,2.8 5.339,2.878 5.095,2.952 4.605,3.099 3.935,3.175 3.175,3.175 2.415,3.175 1.701,3.1 1.215,2.952 0.969,2.882 0.779,2.802 0.655,2.712 0.532,2.624 0.529,2.524 0.529,2.462 Z"
       overflow="visible"
       id="path10" />
    <ellipse
       style="fill:#bacee3;stroke:#415a75;stroke-width:0.26499999;stroke-linecap:round;stroke-linejoin:round"
       cx="3.1760001"
       cy="1.191"
       rx="2.779"
       ry="0.79400003"
       id="ellipse12" />
    <path
       inkscape:connector-curvature="0"
       style="color:#000000;line-height:normal;font-family:sans-serif;font-variant-ligatures:normal;font-variant-position:normal;font-variant-caps:normal;font-variant-numeric:normal;font-variant-alternates:normal;font-feature-settings:normal;text-indent:0;text-align:start;text-decoration:none;text-decoration-line:none;text-decoration-style:solid;text-decoration-color:#000000;text-transform:none;text-orientation:mixed;white-space:normal;shape-padding:0;overflow:visible;isolation:auto;mix-blend-mode:normal;solid-color:#000000;fill:#415a75"
       d="m 0.265,5.133 c 0,0.17 0.095,0.328 0.254,0.44 0.155,0.115 0.392,0.21 0.652,0.29 0.52,0.16 1.224,0.223 2.004,0.223 0.78,0 1.474,-0.062 1.998,-0.222 0.26,-0.078 0.494,-0.176 0.653,-0.29 0.156,-0.113 0.26,-0.27 0.26,-0.44 H 5.821 c 0,0 -0.008,0.155 -0.14,0.245 C 5.556,5.469 5.366,5.549 5.121,5.623 4.631,5.771 3.935,5.82 3.175,5.82 2.415,5.82 1.729,5.774 1.242,5.625 1,5.553 0.81,5.473 0.686,5.38 0.563,5.295 0.53,5.196 0.53,5.133 Z M 0.53,3.783 v 0.45 c 0.21,0.146 0.41,0.225 0.612,0.287 0.52,0.158 1.254,0.243 2.034,0.243 0.78,0 1.47,-0.087 1.99,-0.245 0.24,-0.083 0.472,-0.15 0.656,-0.285 v -0.45 c 0,0.065 -0.046,0.164 -0.17,0.25 C 5.528,4.123 5.339,4.201 5.095,4.275 4.605,4.422 3.935,4.498 3.175,4.498 2.415,4.498 1.702,4.423 1.215,4.274 0.971,4.204 0.781,4.124 0.657,4.034 0.533,3.947 0.529,3.847 0.529,3.784 Z"
       overflow="visible"
       id="path14" />
  </g>
  <g
     transform="translate(0.8682396,-277.94178)"
     id="g55">
    <g
       transform="matrix(0.81317949,0.35395959,-0.39866173,0.91709757,115.33282,25.155894)"
       id="g33"
       style="fill-rule:evenodd;stroke-width:1.06186366">
      <path
         d="M 0.79374999,280.86041 H 11.1125 v 2.91042 H 0.79374999 Z"
         overflow="visible"
         id="path27"
         style="overflow:visible;fill:url(#c)"
         inkscape:connector-curvature="0" />
      <path
         d="M 0.79374999,283.77081 H 11.1125 v 2.91042 H 0.79374999 Z"
         overflow="visible"
         id="path29"
         style="overflow:visible;fill:url(#d)"
         inkscape:connector-curvature="0" />
      <path
         d="M 0.79374999,286.68124 H 11.1125 v 2.91042 H 0.79374999 Z"
         overflow="visible"
         id="path31"
         style="overflow:visible;fill:url(#e)"
         inkscape:connector-curvature="0" />
    </g>
    <g
       transform="translate(2.9291492,-0.4645356)"
       id="g53"
       style="stroke:#976009">
      <path
         d="m 7.3488466,288.29569 4.3540224,-4.76315 c 0.638058,-0.67296 1.848869,0.4389 1.192763,1.1309 l -4.5245605,4.60145 c 1.9744655,1.87206 1.4540054,2.04932 0.7239703,2.81929 l -4.6000124,-4.36142 c 0.7301315,-0.77008 0.91071,-1.2694 2.8538172,0.57293 z"
         id="path35"
         style="fill:url(#a);fill-rule:evenodd;stroke-width:0.26458332"
         inkscape:connector-curvature="0" />
      <path
         d="m 4.4918833,287.71977 -2.9126893,3.07203 4.608038,4.36903 2.9126892,-3.07202 z"
         id="path37"
         style="fill:url(#b);fill-rule:evenodd;stroke-width:0.26458332"
         inkscape:connector-curvature="0" />
      <path
         d="m 4.9764608,288.36233 -2.7298623,2.8792"
         id="path39"
         inkscape:connector-curvature="0"
         style="fill:none;stroke-width:0.13229167" />
      <path
         d="m 5.5524655,288.90846 -2.7298622,2.8792"
         id="path41"
         inkscape:connector-curvature="0"
         style="fill:none;stroke-width:0.13229167" />
      <path
         d="m 6.1284703,289.45459 -2.7298622,2.8792"
         id="path43"
         inkscape:connector-curvature="0"
         style="fill:none;stroke-width:0.13229167" />
      <path
         d="m 6.704475,290.00072 -2.7298622,2.8792"
         id="path45"
         inkscape:connector-curvature="0"
         style="fill:none;stroke-width:0.13229167" />
      <path
         d="m 7.2804797,290.54685 -2.7298622,2.8792"
         id="path47"
         inkscape:connector-curvature="0"
         style="fill:none;stroke-width:0.13229167" />
      <path
         d="m 7.8569042,291.09254 -2.7306467,2.88002"
         id="path49"
         inkscape:connector-curvature="0"
         style="fill:none;stroke-width:0.13229167" />
      <path
         d="m 8.4332737,291.63828 -2.73064,2.88002"
         id="path51"
         inkscape:connector-curvature="0"
         style="fill:none;stroke-width:0.13229167" />
    </g>
  </g>
</svg>
